<svg width="26" height="37" viewBox="0 0 26 37" fill="none" xmlns="http://www.w3.org/2000/svg">
<path fill-rule="evenodd" clip-rule="evenodd" d="M20.7199 24.7013C19.8174 23.5931 18.7021 22.6588 17.5534 21.8042C17.2019 23.2653 16.8388 24.7235 16.4641 26.1788C16.2777 26.9079 16.0875 27.635 15.8934 28.3603C15.721 29.0092 15.3284 29.8667 15.3647 30.5171C15.9658 30.5794 22.5248 30.6939 22.5523 30.5403C22.8579 28.8021 22.293 26.9842 21.3152 25.511C21.1356 25.2285 20.9357 24.9606 20.7199 24.7013Z" fill="#BA9258"/>
<path fill-rule="evenodd" clip-rule="evenodd" d="M25.3494 33.1781V33.1752H0V36.6966H0.00434101V36.6981H25.4421V33.1781H25.3494Z" fill="#BA9258"/>
<path fill-rule="evenodd" clip-rule="evenodd" d="M23.9071 32.4858H23.9896V31.2284H23.9071V31.227H23.8984V31.2284H22.5353V31.227H1.38379V32.4887H23.9071V32.4858Z" fill="#BA9258"/>
<path fill-rule="evenodd" clip-rule="evenodd" d="M7.1302 29.2975L6.94334 28.7717L6.74924 28.2126V28.2039L5.89315 25.7414C5.89085 25.7414 5.88863 25.7404 5.887 25.7388C5.88537 25.7372 5.88446 25.735 5.88446 25.7327L5.83376 25.5878H5.03851C4.58947 25.5878 4.14042 25.5878 3.70007 25.5791C3.61605 25.5791 3.52335 25.5704 3.4205 25.5704H3.28579C3.20104 25.5716 3.11641 25.5774 3.0323 25.5878V29.144C3.03304 29.4096 2.97574 29.6722 2.86439 29.9134C2.75305 30.1546 2.59036 30.3686 2.3877 30.5404H7.5271C7.50247 30.2202 7.24753 29.6017 7.1302 29.2975Z" fill="#BA9258"/>
<path fill-rule="evenodd" clip-rule="evenodd" d="M3.17712 24.597C3.3973 24.7331 5.95397 24.5897 6.42909 24.623C6.95345 24.6651 7.0085 25.0967 7.15335 25.5284C7.29821 25.96 7.42423 26.2903 7.57777 26.7394C7.68786 27.0522 8.06013 27.8982 8.06013 27.8982L9.49853 18.5175C9.52461 18.2712 9.5246 18.0684 9.626 17.8902C9.67784 17.7878 9.76108 17.7045 9.86356 17.6527C9.95244 17.6041 10.052 17.5782 10.1533 17.5774C10.1902 17.5759 10.2271 17.5788 10.2634 17.5861C10.4075 17.6139 10.5388 17.6874 10.6379 17.7956C10.7371 17.9039 10.7987 18.0412 10.8138 18.1872L11.4917 22.0562L11.5931 22.6574L11.6264 22.8602L11.9161 24.5115L12.103 25.637C12.1117 25.6124 12.442 25.0446 12.5376 24.8331C12.6463 24.5784 12.8492 24.3755 13.1039 24.2667C13.127 24.2528 13.1539 24.2467 13.1807 24.2493C13.2111 24.2425 13.2423 24.2396 13.2734 24.2406C13.5284 24.2406 13.7558 24.4188 13.8528 24.7563L13.9702 25.1807L14.0382 25.4255L14.7915 27.7041C14.8089 27.4578 15.0971 26.4004 15.4274 25.1894C15.494 24.9345 15.5722 24.681 15.6389 24.4188L15.791 23.8597C15.9778 23.1991 16.1545 22.5719 16.2907 22.0736C16.3081 21.9795 16.3747 21.7593 16.4428 21.5232C16.4848 21.3696 16.5355 21.2088 16.579 21.0741C15.5767 20.2448 14.8021 19.1741 14.3279 17.9627C14.3104 17.933 14.2963 17.9014 14.2859 17.8685C14.2526 17.7671 14.2092 17.6657 14.1845 17.5643C14.1373 17.4428 14.0976 17.3185 14.0658 17.1921C14.0497 17.1136 14.0386 17.0343 14.0324 16.9545C14.0252 16.8983 14.0223 16.8416 14.0238 16.785C14.0218 16.3934 14.1368 16.01 14.354 15.6841C14.5393 15.3986 14.7942 15.165 15.0948 15.0052C15.3953 14.8454 15.7315 14.7646 16.0718 14.7706C16.4121 14.7765 16.7453 14.8689 17.04 15.0391C17.3348 15.2093 17.5814 15.4517 17.7566 15.7435C17.7885 15.7953 17.817 15.849 17.8421 15.9043C17.8928 16.0492 17.9435 16.1839 17.987 16.3287C17.998 16.3492 18.004 16.3721 18.0043 16.3954C18.0463 16.5141 18.0797 16.6329 18.1144 16.7517C18.1231 16.7691 18.1231 16.785 18.1304 16.8024C18.1759 16.9451 18.2387 17.0818 18.3172 17.2094C18.5505 17.5957 18.9183 17.882 19.35 18.0134C19.3913 18.0285 19.434 18.0397 19.4775 18.0467C19.4932 18.0546 19.5108 18.0576 19.5282 18.0554C19.647 18.0641 19.773 18.0815 19.9005 18.0974H20.0019C20.5115 18.1337 21.0165 18.219 21.5098 18.3523C21.9154 18.4697 22.0762 18.6058 22.2891 18.5638H22.3137C22.4497 18.5101 22.5734 18.4292 22.6773 18.3263C23.2785 17.7845 23.9651 17.3268 24.5836 16.785C24.6339 16.7511 24.6823 16.7144 24.7284 16.6749C24.7794 16.64 24.8249 16.5975 24.8631 16.5489C24.9296 16.4842 24.9893 16.4128 25.0413 16.336C25.2866 16.019 25.4178 15.6286 25.4136 15.2278C25.4167 14.9703 25.3617 14.7153 25.2528 14.4818C25.2339 14.4321 25.2117 14.3837 25.1862 14.337C25.129 14.1873 25.0607 14.042 24.9819 13.9024C24.8469 13.6564 24.6969 13.4189 24.5329 13.1912C24.5329 13.1912 22.5745 10.2116 22.1863 9.69588L20.8478 7.85769L20.5755 7.48541C20.5755 7.48541 20.448 7.3 20.4408 7.3L20.3553 7.18122L20.3379 7.15515C20.2405 7.0415 20.1528 6.91988 20.0757 6.79157C20.0662 6.77233 20.058 6.75249 20.0511 6.73218C20.0188 6.32849 19.948 5.9288 19.8396 5.53858C19.8411 5.52122 19.8381 5.50376 19.8309 5.48788C19.6924 4.9851 19.5052 4.49704 19.2718 4.03066C19.2385 3.97271 19.2037 3.91332 19.1704 3.84524C19.1023 3.73515 19.0429 3.62507 18.9749 3.51498C19.1234 3.1728 19.2962 2.84169 19.492 2.52418C19.8612 1.9435 20.3054 1.41408 20.813 0.94962C20.8217 0.932237 20.8377 0.923546 20.8551 0.906164C20.9564 0.822149 21.0578 0.729442 21.1592 0.661361C21.1679 0.643979 21.1766 0.635288 21.1853 0.635288C21.4429 0.420152 21.7176 0.226372 22.0066 0.0558731C21.9419 0.0461507 21.8766 0.040346 21.8111 0.0384907H21.7343C21.4848 0.00908977 21.2337 -0.00349262 20.9825 0.000828726H20.9072L20.2467 0.0269024C19.8121 0.0515275 19.3775 0.0862924 18.943 0.136991C18.7315 0.152925 18.52 0.178999 18.2998 0.212315C18.0797 0.245631 17.8841 0.271705 17.6726 0.305021C17.0932 0.399176 16.5297 0.517956 15.9793 0.661361C15.5722 0.762759 15.1666 0.872847 14.7683 1.00032C14.37 1.12779 13.9818 1.27119 13.5993 1.4146C13.4545 1.4653 13.3096 1.52469 13.1648 1.58408C13.1354 1.59191 13.1071 1.6036 13.0808 1.61884C13.0127 1.64347 12.9533 1.67678 12.8852 1.70286C12.7751 1.75356 12.6665 1.81295 12.5564 1.87234C12.4883 1.90565 12.4289 1.93173 12.3695 1.96504C12.1914 2.05775 12.0219 2.1519 11.8524 2.24461C9.36766 3.66266 7.26871 5.66859 5.73958 8.08656C5.59473 8.31543 5.44987 8.55299 5.3166 8.7891C4.10046 10.9264 3.36491 13.3031 3.16119 15.7537C2.92508 18.4537 3.10903 21.1654 3.08151 23.8655C3.08441 24.09 3.01633 24.4956 3.17712 24.597Z" fill="#BA9258"/>
<path fill-rule="evenodd" clip-rule="evenodd" d="M13.6534 28.637C13.4753 27.9591 13.3058 27.2899 13.2189 26.9857C13.1508 26.7742 13.1088 26.6554 13.0581 26.4599C12.7785 26.6641 12.5163 27.4927 12.2122 27.8664C12.1708 27.9314 12.1153 27.9864 12.0499 28.0272C11.7964 28.1619 11.3387 28.1532 11.162 27.9084C11.0852 27.807 10.9418 27.019 10.8056 26.1224C10.8056 26.105 10.7969 26.0789 10.7969 26.063C10.6448 25.1403 10.5072 24.1234 10.4333 23.6656C10.4247 23.6077 10.416 23.5642 10.4073 23.5208C10.374 23.3426 10.3146 23.0384 10.2726 22.7675C10.2545 22.6354 10.2434 22.5025 10.2392 22.3692L10.1538 22.8516L9.94229 24.0973L9.62072 26.0021L9.61203 26.0354L9.29914 27.907L9.17168 28.6428L8.86748 30.4549L8.8501 30.5317H14.2517C14.086 30.1266 13.9476 29.7109 13.8374 29.2874C13.7664 29.0774 13.7128 28.8572 13.6534 28.637Z" fill="#BA9258"/>
</svg>
